<?xml version="1.0" encoding="UTF-8"?>
<svg id="Camada_1" data-name="Camada 1" xmlns="http://www.w3.org/2000/svg" xmlns:xlink="http://www.w3.org/1999/xlink" viewBox="0 0 96 96">
  <defs>
    <style>
      .cls-1 {
        fill: url(#Gradiente_sem_nome_60);
      }

      .cls-1, .cls-2, .cls-3, .cls-4, .cls-5, .cls-6 {
        stroke-width: 0px;
      }

      .cls-2 {
        fill: url(#Gradiente_sem_nome_59);
      }

      .cls-3 {
        fill: url(#Gradiente_sem_nome_60-2);
      }

      .cls-4 {
        fill: url(#Gradiente_sem_nome_60-3);
      }

      .cls-5 {
        fill: #fff;
      }

      .cls-6 {
        fill: url(#Gradiente_sem_nome_60-4);
      }
    </style>
    <linearGradient id="Gradiente_sem_nome_60" data-name="Gradiente sem nome 60" x1="75.64" y1="21.46" x2="75.64" y2="68.12" gradientUnits="userSpaceOnUse">
      <stop offset="0" stop-color="#8faf1f"/>
      <stop offset=".96" stop-color="#374407"/>
    </linearGradient>
    <linearGradient id="Gradiente_sem_nome_60-2" data-name="Gradiente sem nome 60" x1="60.07" y1="19.76" x2="60.07" y2="45.65" xlink:href="#Gradiente_sem_nome_60"/>
    <linearGradient id="Gradiente_sem_nome_60-3" data-name="Gradiente sem nome 60" x1="54.3" y1="15.95" x2="54.3" y2="68.12" xlink:href="#Gradiente_sem_nome_60"/>
    <linearGradient id="Gradiente_sem_nome_59" data-name="Gradiente sem nome 59" x1="47.48" y1="47.04" x2="47.48" y2="70.03" gradientUnits="userSpaceOnUse">
      <stop offset="0" stop-color="#8faf1f"/>
      <stop offset=".96" stop-color="#374407"/>
    </linearGradient>
    <linearGradient id="Gradiente_sem_nome_60-4" data-name="Gradiente sem nome 60" x1="21.67" y1="21.11" x2="21.67" y2="80.05" xlink:href="#Gradiente_sem_nome_60"/>
  </defs>
  <path class="cls-1" d="M83.32,22.23c1.74.97,2.88,1.93,3.22,2.22,4.29,3.68,5.38,8.09,7.32,16.36.98,4.19,3.81,16.3.79,22.38-.45.9-1.02,1.67-1.75,2.26-2.69,2.18-5.88,2.58-5.88,2.58-.82.11-1.56.1-2.17.05h0c-7.33-2.38-13.63-5.97-14.85-6.67-6.63-3.78-13.86-7.92-14.63-15.02-.07-.6-.08-1.18-.05-1.76.09-2.15.76-4.12,1.57-5.77,1.2-2.44,2.7-4.15,3.11-4.61,4.56-5.17,8.24-3.41,17.13-9.24,2.06-1.35,3.55-2.55,4.71-3.56l1.51.76Z"/>
  <path class="cls-3" d="M81.81,21.46c-2.16-.99-4.93-1.8-8.08-1.69-6.55.23-7,4.19-13.57,5.44-5.55,1.06-11.02-.64-18.03-3.55-.88-.36-1.79-.75-2.72-1.15-1.91,2.32-2.84,3.79-2.74,5.28.23,3.25,3.89,3.56,9.63,8.86,4.93,4.55,6.5,8.27,8.99,9.99.78.54,1.65.88,2.75.99,1.31.13,2.54-.26,4.88-1.05.1-.03.21-.07.32-.11,2.14-.72,5.99-2.28,10.59-5.97,5.45-4.38,8.24-6.62,9.24-10.78.39-1.64.51-3.57.25-5.49l-1.51-.76Z"/>
  <path class="cls-4" d="M94.65,63.19c-.45.9-1.02,1.67-1.75,2.26-2.69,2.18-5.88,2.58-5.88,2.58-.82.11-1.56.1-2.17.05h0c-.67-.05-1.18-.15-1.49-.21-4.28-.79-8.41-2.15-12.55-3.48-1.91-.61-3.81-1.22-5.74-1.77-4.27-1.21-11.45-3.46-18.78-1.26-1.22.36-2.11.75-2.92,1.23-.91.54-1.74,1.21-2.85,2.12-5.03-1.02-9.55-3.33-12.67-5.81-1.57-1.25-2.71-2.47-3.57-3.75-3.91-5.79-2.2-12.62-10.31-27.31.99-1.42,2.03-2.87,3.1-4.36.62-.87,1.2-1.66,1.76-2.37,2.14-2.73,3.95-4.34,6.51-4.94,3.6-.85,6.08.88,11.59,3.26.86.37,1.69.73,2.5,1.08.94.4,1.84.79,2.72,1.15.23.4.5.85.89,1.44,0,0,2.12,3.41,4.62,6.55,2.44,3.06,4.25,4.59,9.21,9.23.07.07.15.14.22.21,2.48,2.32,4.37,4.09,5.84,5.5,1.64,1.56,2.76,2.66,3.59,3.55,4.45,4.79,5.94,7.29,10.2,10.4,2.42,1.76,4.88,3.1,5.2,3.27,2.94,1.59,4.4,2.4,5.97,2.7,2.71.51,4.97-.4,6.76-1.3Z"/>
  <path class="cls-2" d="M70.79,64.39c-1.91-.61-3.81-1.22-5.74-1.77-4.27-1.21-11.45-3.46-18.78-1.26-1.22.36-2.11.75-2.92,1.23-.91.54-1.74,1.21-2.85,2.12-1.43,1.18-3.34,2.75-6.51,4.97-.17.12-.33.23-.5.35-1.31-.35-2.39-.83-3.35-1.5-.64-.45-4.83-3.49-5.78-9.05-.03-.2-.33-2.08-.11-4.33.24-2.38,1.05-5.17,3.38-6.84,1.34-.96,2.83-1.29,4.58-1.27,3.05.03,5.41.56,6.39.89,9.76,3.34,14.63,5.01,21.27,8.95,2.91,1.73,6.7,4.18,10.91,7.5Z"/>
  <path class="cls-6" d="M43.34,62.59c-.91.54-1.74,1.21-2.85,2.12-1.43,1.18-3.34,2.75-6.51,4.97-.17.12-.33.23-.5.35-9.12,6.38-17.15,11.72-24.4,9.51-.98-.3-4.2-1.43-6.48-4.47-1.2-1.61-2.18-3.79-2.5-8.28-.48-6.58.88-11.89,1.73-14.82,2.92-10.04,7.01-16.82,12.11-24.13.99-1.42,2.03-2.87,3.1-4.36.62-.87,1.2-1.66,1.76-2.37.43.51.8,1,1.12,1.41,1.59,2.06,1.73,2.99,4.43,8.86,0,0,2.26,4.91,5.2,10.59,1.05,2.02,1.91,3.68,2.66,5.08,1.4,2.59,2.41,4.25,3.5,5.51,2.22,2.57,3.54,3.21,5.58,6.35.67,1.03,1.42,2.21,2.04,3.69Z"/>
  <path class="cls-5" d="M35.76,32.4c3.78-2.29,8.06-.65,8.33-.54,1.59.64,4.01,2.18,4.01,2.18,0,0,2.15-1.35,3.7-1.99.11-.04.26-.11.46-.18.68-.25,2.68-.84,4.74-.59,3,.37,6.32,2.54,7.12,5.53.08.31.1.49.19,1.4,0,0,.93,10.11-.19,14.44-.01.05-.04.15-.1.28-.36.79-1.4,1.39-2.44,1.32-.95-.07-2-.7-2.08-1.41-.01-.1,0-.17,0-.19.23-2,.05-10.45,0-12.51,0-.15,0-.32-.05-.56-.27-1.5-1.73-3.49-4.03-3.61-1.82-.1-4.02,1.45-4.39,3.21-.02.09-.03.15-.04.23-.43,3.37.12,11.05.04,13.05,0,.04,0,.15-.05.29-.27.94-1.67,1.55-2.88,1.51-.93-.03-2.07-.47-2.51-1.35-.1-.2-.14-.37-.15-.44-.52-2.58-.05-11.43,0-12.9,0-.05,0-.11,0-.19-.07-1.46-1.71-3.19-3.7-3.4-2.26-.23-4.28,1.58-4.58,3.21-.02.13-.03.23-.04.31-.22,3.18.19,10.67.04,12.78,0,.03,0,.13-.04.25-.26,1.02-1.69,1.93-3.08,1.74-.87-.12-1.71-.67-2.08-1.41-.13-.26-.17-.48-.19-.58-.51-2.72.16-13.74.16-13.86,0,0,0,0,0-.02,0-.03,0-.09,0-.17,0-.14,0-.34.04-.58.38-3.11,3.49-5.05,3.79-5.23Z"/>
</svg>